<svg width="100" height="100" viewBox="0 0 100 100" fill="none" xmlns="http://www.w3.org/2000/svg">
<path fill-rule="evenodd" clip-rule="evenodd" d="M50 100C77.6142 100 100 77.6142 100 50C100 22.3858 77.6142 0 50 0C22.3858 0 0 22.3858 0 50C0 77.6142 22.3858 100 50 100ZM49.7196 20.1923C41.699 20.1923 40.695 20.2245 37.5463 20.3695H37.5437C34.403 20.5144 32.2556 21.0137 30.3766 21.7411C28.4076 22.4832 26.6241 23.6457 25.1503 25.1475C23.6474 26.622 22.484 28.4065 21.7412 30.3765C21.0138 32.2555 20.5118 34.403 20.3695 37.549C20.2273 40.695 20.1924 41.6989 20.1924 49.7196C20.1924 57.7375 20.2246 58.7415 20.3695 61.8955C20.5145 65.0361 21.0138 67.1836 21.7412 69.0626C22.4829 71.0325 23.6454 72.817 25.1476 74.2916C26.6235 75.7928 28.4088 76.9543 30.3793 77.6953C32.2583 78.4254 34.4057 78.9274 37.5463 79.0696C40.695 79.2119 41.699 79.2468 49.7196 79.2468C57.7403 79.2468 58.7442 79.2146 61.8956 79.0696C65.0362 78.9247 67.1836 78.4254 69.0627 77.6953C71.0302 76.9544 72.8153 75.7948 74.2917 74.2916C75.7929 72.8158 76.9545 71.0304 77.6953 69.0599C78.4255 67.1809 78.9274 65.0334 79.0697 61.8928C79.212 58.7441 79.2469 57.7402 79.2469 49.7196C79.2469 41.7016 79.2147 40.6976 79.0697 37.5436C78.9248 34.403 78.4255 32.2555 77.6953 30.3765C76.9545 28.4062 75.7949 26.6239 74.2917 25.1502C72.8153 23.647 71.0302 22.4847 69.0627 21.7411C67.1836 21.0137 65.0362 20.5117 61.8902 20.3695C58.7442 20.2272 57.7403 20.1923 49.7196 20.1923ZM49.7196 25.5126C57.6034 25.5126 58.5375 25.5421 61.6513 25.6844C64.5316 25.8159 66.0938 26.2964 67.1353 26.7017C68.4176 27.1747 69.5778 27.9286 70.531 28.9082C71.5644 29.9417 72.2006 30.9268 72.7375 32.3038C73.1428 33.3454 73.6233 34.9076 73.7548 37.7879C73.8971 40.9016 73.9266 41.8358 73.9266 49.7196C73.9266 57.6033 73.8971 58.5375 73.7548 61.6512C73.6233 64.5315 73.1428 66.0938 72.7375 67.1353C72.265 68.4157 71.5107 69.578 70.531 70.5309C69.4975 71.5643 68.5124 72.2005 67.1353 72.7374C66.0938 73.1427 64.5316 73.6232 61.6513 73.7547C58.5375 73.897 57.6061 73.9265 49.7196 73.9265C41.8332 73.9265 40.9017 73.897 37.7879 73.7547C34.9077 73.6232 33.3454 73.1427 32.3039 72.7374C31.0235 72.2649 29.8612 71.5107 28.9083 70.5309C27.9285 69.578 27.1742 68.4157 26.7018 67.1353C26.2965 66.0938 25.816 64.5315 25.6845 61.6512C25.5422 58.5375 25.5127 57.6033 25.5127 49.7196C25.5127 41.8358 25.5422 40.9016 25.6845 37.7879C25.816 34.9076 26.2965 33.3454 26.7018 32.3038C27.1747 31.0215 27.9286 29.8613 28.9083 28.9082C29.9417 27.8748 30.9269 27.2386 32.3039 26.7017C33.3454 26.2964 34.9077 25.8159 37.7879 25.6844C40.9017 25.5421 41.8358 25.5126 49.7196 25.5126ZM52.5836 59.1568C50.3998 59.8171 48.0544 59.6988 45.9482 58.822C44.6029 58.2642 43.398 57.415 42.4203 56.3356C41.4426 55.2562 40.7163 53.9735 40.2938 52.5797C39.8714 51.186 39.7632 49.7159 39.977 48.2753C40.1909 46.8347 40.7215 45.4595 41.5307 44.2486C42.3398 43.0377 43.4074 42.0212 44.6565 41.2724C45.9057 40.5236 47.3053 40.0611 48.7546 39.9182C50.2039 39.7752 51.667 39.9554 53.0383 40.4457C54.4097 40.936 55.6552 41.7243 56.6854 42.7538C58.3013 44.3643 59.308 46.4859 59.5335 48.7562C59.759 51.0265 59.1894 53.3046 57.9218 55.2015C56.6542 57.0985 54.7674 58.4965 52.5836 59.1568ZM43.9116 35.6978C42.0702 36.4605 40.3971 37.5784 38.9878 38.9877C36.1416 41.834 34.5426 45.6943 34.5426 49.7196C34.5426 53.7448 36.1416 57.6051 38.9878 60.4514C41.8341 63.2976 45.6944 64.8966 49.7196 64.8966C53.7448 64.8966 57.6052 63.2976 60.4514 60.4514C61.8608 59.042 62.9787 57.3689 63.7414 55.5276C64.5041 53.6862 64.8967 51.7126 64.8967 49.7196C64.8967 47.7265 64.5041 45.7529 63.7414 43.9115C62.9787 42.0702 61.8608 40.3971 60.4514 38.9877C59.0421 37.5784 57.369 36.4605 55.5276 35.6978C53.6863 34.935 51.7127 34.5425 49.7196 34.5425C47.7265 34.5425 45.753 34.935 43.9116 35.6978ZM69.0849 35.6377C68.8916 36.0771 68.612 36.4733 68.2627 36.8027C67.5835 37.4434 66.6814 37.7942 65.7477 37.7806C64.8141 37.767 63.9226 37.3901 63.2623 36.7298C62.6021 36.0696 62.2251 35.178 62.2115 34.2444C62.1979 33.3108 62.5487 32.4086 63.1894 31.7294C63.5189 31.3802 63.915 31.1006 64.3545 30.9072C64.7939 30.7138 65.2677 30.6106 65.7477 30.6036C66.2278 30.5966 66.7044 30.686 67.1493 30.8665C67.5941 31.0469 67.9983 31.3149 68.3378 31.6544C68.6773 31.9938 68.9452 32.398 69.1257 32.8429C69.3062 33.2878 69.3956 33.7643 69.3886 34.2444C69.3816 34.7245 69.2783 35.1982 69.0849 35.6377Z" fill="#C13584"/>
</svg>
