<svg width="411" height="370" viewBox="0 0 411 370" fill="none" xmlns="http://www.w3.org/2000/svg">
<g filter="url(#filter0_d_16_57)">
<rect x="15.6494" y="111.778" width="322.33" height="247.636" rx="14" transform="rotate(-16.4744 15.6494 111.778)" fill="#F8F8F8"/>
<rect x="16.2707" y="112.116" width="321.33" height="246.636" rx="13.5" transform="rotate(-16.4744 16.2707 112.116)" stroke="white"/>
</g>
<path d="M277.935 145.31C259.175 133.221 234.915 128.257 209.622 131.342C208.416 131.488 207.283 130.739 206.946 129.57L204.949 122.636C204.673 121.68 203.771 121.044 202.776 121.1C195.658 121.496 188.548 122.71 181.588 124.715C169.682 128.144 158.863 133.649 149.391 141.092C148.766 141.581 148.502 142.402 148.709 143.169L151.121 152.092C151.462 153.353 151.018 154.693 149.996 155.505C139.861 163.546 130.385 173.885 124.491 184.089L123.492 185.941C123.406 186.102 123.389 186.294 123.448 186.472C137.217 227.184 180.729 250.249 222.45 238.232C262.523 226.689 286.779 186.863 279.774 146.698C279.741 146.509 279.629 146.344 279.463 146.244L277.935 145.31ZM237.065 205.804C236.087 205.866 235.112 205.892 234.132 205.933C233.155 205.963 232.172 205.998 231.197 205.995C227.289 205.987 223.377 205.816 219.488 205.415C213.134 204.781 206.818 203.666 200.613 202.065C200.352 201.996 200.075 202.094 199.915 202.313L199.913 202.317C199.351 203.065 198.777 203.806 198.206 204.546C197.639 205.288 197.042 206.011 196.45 206.739C195.848 207.459 195.267 208.191 194.638 208.89C194.022 209.599 193.396 210.298 192.774 210.998C192.143 211.691 191.49 212.371 190.844 213.05C190.521 213.388 190.194 213.727 189.866 214.062C189.533 214.392 189.198 214.726 188.86 215.05C188.185 215.704 187.51 216.359 186.816 216.994C185.412 218.251 184.005 219.498 182.507 220.652C181.757 221.257 180.986 221.838 180.194 222.397C179.617 222.805 178.888 222.133 179.241 221.525C179.723 220.699 180.206 219.88 180.68 219.053C181.141 218.244 181.633 217.466 182.088 216.662C182.552 215.863 183.022 215.073 183.498 214.289C185.358 211.12 187.232 208.002 189.087 204.875L191.813 200.295C192.03 199.934 191.854 199.463 191.456 199.33C191.257 199.261 191.058 199.196 190.855 199.129C189.932 198.794 189.003 198.468 188.085 198.125C187.163 197.786 186.251 197.416 185.34 197.049C181.695 195.57 178.118 193.903 174.66 192.012C171.197 190.128 167.851 188.013 164.681 185.661C163.102 184.472 161.566 183.224 160.101 181.895C159.367 181.232 158.655 180.546 157.964 179.834L157.934 179.804C157.44 179.288 158.009 178.466 158.667 178.74C159.575 179.119 160.483 179.487 161.387 179.856C163.172 180.571 164.96 181.258 166.737 181.936C170.303 183.276 173.863 184.548 177.427 185.773C180.994 186.993 184.564 188.163 188.142 189.297C188.589 189.438 189.038 189.575 189.486 189.719C189.934 189.863 190.379 190.009 190.831 190.141C191.731 190.407 192.627 190.695 193.522 190.97L196.221 191.775C196.245 191.782 196.272 191.789 196.296 191.796C196.588 191.885 196.902 191.766 197.056 191.502L200.212 186.202C202.067 183.089 203.942 179.984 205.827 176.877C207.708 173.767 209.611 170.662 211.557 167.566C213.499 164.468 215.479 161.38 217.524 158.302C218.549 156.766 219.584 155.227 220.651 153.7C221.189 152.923 221.732 152.148 222.29 151.376C222.703 150.8 223.618 151.191 223.477 151.887C223.287 152.826 223.077 153.757 222.855 154.684C222.421 156.514 221.92 158.32 221.378 160.108C220.291 163.687 219.042 167.205 217.642 170.661C214.85 177.576 211.504 184.251 207.687 190.663C207.087 191.677 206.472 192.677 205.843 193.675C205.605 194.049 205.795 194.545 206.221 194.663L209.786 195.665C210.694 195.91 211.608 196.161 212.517 196.421C213.426 196.68 214.34 196.917 215.254 197.168L217.994 197.929C218.91 198.176 219.828 198.415 220.744 198.673C221.661 198.923 222.574 199.196 223.497 199.43C224.415 199.683 225.335 199.929 226.256 200.192C226.717 200.319 227.175 200.46 227.638 200.582L229.023 200.96C229.946 201.216 230.871 201.481 231.794 201.751C233.644 202.279 235.5 202.806 237.359 203.392C238.307 203.673 239.257 203.961 240.208 204.266C240.889 204.483 240.781 205.482 240.068 205.554C239.058 205.654 238.063 205.736 237.065 205.804Z" fill="black"/>
<path d="M237.271 88.6653L180.099 111.643C179.734 111.788 179.324 111.589 179.216 111.214L178.175 107.597C178.097 107.328 178.198 107.04 178.424 106.878L214.685 80.911C202.746 78.7069 190.126 79.1665 177.666 82.7556C159.221 88.0684 144.129 99.3748 133.89 113.948L155.296 115.245C155.574 115.262 155.812 115.452 155.89 115.721L156.941 119.371C157.046 119.736 156.824 120.113 156.456 120.197L126.354 127.142C119.141 143.066 117.022 161.392 121.437 179.542C127.363 169.886 135.368 160.87 144.81 153.219C145.603 152.577 145.931 151.519 145.656 150.537L143.169 141.694C142.907 140.759 143.215 139.753 143.962 139.128C154.491 130.305 166.692 123.856 180.218 119.96C188.766 117.497 197.537 116.172 206.287 116.022C207.404 116.002 208.395 116.735 208.705 117.811L210.617 124.449C210.906 125.452 211.862 126.112 212.903 126.017C224.77 124.937 236.425 125.571 247.614 127.905C258.848 130.251 269.138 134.21 278.25 139.685L277.793 138.097C271.394 115.884 256.299 98.5269 237.271 88.6653Z" fill="black"/>
<path d="M180.099 111.643L237.271 88.665C230.202 85.0007 222.594 82.3729 214.685 80.9107L178.424 106.878C178.198 107.04 178.097 107.328 178.175 107.597L179.216 111.213C179.325 111.589 179.735 111.791 180.099 111.643Z" fill="#FCD407"/>
<path d="M155.3 115.247L133.894 113.95C130.976 118.103 128.452 122.523 126.359 127.144L156.461 120.199C156.828 120.115 157.051 119.738 156.945 119.373L155.894 115.723C155.817 115.454 155.578 115.264 155.3 115.247Z" fill="#FCD407"/>
<path d="M105.496 299.86L123.377 294.738C126.784 293.757 128.988 294.967 129.987 298.373L130.179 299.037C130.655 300.691 130.042 301.773 128.344 302.281C126.64 302.771 125.541 302.164 125.05 300.46C124.911 300.04 124.636 299.885 124.224 300.004L109.523 304.239C107.819 304.729 107.211 305.829 107.702 307.532L109.175 312.646C109.666 314.35 110.762 314.959 112.469 314.467L127.171 310.232C127.579 310.115 127.726 309.824 127.613 309.357C127.127 307.67 127.727 306.583 129.414 306.097C131.123 305.623 132.231 306.236 132.742 307.937L132.9 308.586C133.883 311.996 132.676 314.189 129.286 315.165L111.389 320.32C107.998 321.297 105.801 320.085 104.802 316.679L101.855 306.451C100.873 303.04 102.085 300.842 105.496 299.86Z" fill="black"/>
<path d="M132.701 292.023L150.574 286.875C155.688 285.402 158.989 287.221 160.482 292.329C160.972 294.033 160.365 295.132 158.661 295.623C156.957 296.114 155.848 295.509 155.341 293.81C154.85 292.106 153.761 291.496 152.074 291.982L139.291 295.664L142.974 308.449C143.465 310.153 142.867 311.249 141.18 311.735C139.477 312.226 138.377 311.618 137.887 309.915L132.701 292.023Z" fill="black"/>
<path d="M162.875 288.929C161.894 285.521 163.106 283.324 166.516 282.341L181.856 277.923C185.267 276.941 187.456 278.137 188.428 281.511L191.374 291.739C192.357 295.15 191.144 297.344 187.733 298.327L172.417 302.739C169.006 303.721 166.805 302.51 165.803 299.105L162.872 288.93L162.875 288.929ZM184.05 285.541C183.553 283.876 182.452 283.29 180.745 283.781L170.517 286.728C168.83 287.214 168.226 288.29 168.708 289.961L170.195 295.125C170.676 296.795 171.761 297.389 173.448 296.903L183.676 293.957C185.38 293.466 185.994 292.365 185.523 290.655L184.05 285.541Z" fill="black"/>
<path d="M197.268 273.371L216.451 267.875C218.155 267.384 219.251 267.982 219.737 269.669C220.228 271.372 219.62 272.472 217.917 272.962L198.765 278.479C197.921 278.758 197.618 279.305 197.855 280.126C198.1 280.979 198.648 281.282 199.501 281.036L214.844 276.617C219.11 275.406 221.867 276.939 223.119 281.21C224.33 285.476 222.802 288.225 218.541 289.452L199.366 294.975C197.663 295.466 196.563 294.858 196.073 293.155C195.582 291.451 196.189 290.352 197.893 289.861L217.068 284.338C217.922 284.092 218.224 283.545 217.979 282.691C217.723 281.804 217.171 281.485 216.317 281.731L200.975 286.15C196.714 287.378 193.968 285.86 192.74 281.599C191.513 277.338 193.024 274.594 197.268 273.371Z" fill="black"/>
<path d="M228.565 264.357L247.748 258.86C249.451 258.369 250.548 258.967 251.034 260.654C251.525 262.358 250.917 263.457 249.213 263.948L230.065 269.463C229.221 269.742 228.918 270.29 229.154 271.11C229.4 271.964 229.948 272.266 230.801 272.02L246.144 267.601C250.41 266.39 253.167 267.923 254.419 272.195C255.63 276.46 254.102 279.209 249.841 280.436L230.666 285.96C228.962 286.45 227.863 285.843 227.372 284.139C226.882 282.436 227.489 281.336 229.193 280.845L248.368 275.322C249.222 275.076 249.524 274.529 249.278 273.675C249.023 272.789 248.471 272.469 247.617 272.715L232.274 277.135C228.014 278.362 225.267 276.844 224.04 272.583C222.813 268.322 224.321 265.579 228.565 264.357Z" fill="black"/>
<path d="M259.685 277.602L258.212 272.487L258.238 272.48L252.331 251.973C251.85 250.302 252.464 249.223 254.167 248.732C255.871 248.242 256.97 248.849 257.461 250.553L258.907 255.675L271.716 251.985C276.814 250.517 280.098 252.34 281.571 257.455L283.058 262.619C284.522 267.7 282.696 270.974 277.581 272.447L259.685 277.602ZM263.349 271.008L276.108 267.332C277.812 266.842 278.419 265.742 277.929 264.039L276.456 258.924C275.965 257.221 274.885 256.607 273.215 257.089L260.406 260.778L263.352 271.007L263.349 271.008Z" fill="black"/>
<path d="M284.81 253.806C283.829 250.398 285.041 248.201 288.452 247.218L303.791 242.8C307.202 241.818 309.391 243.014 310.363 246.388L313.309 256.616C314.292 260.027 313.079 262.221 309.668 263.204L294.352 267.615C290.941 268.598 288.74 267.387 287.738 263.982L284.807 253.807L284.81 253.806ZM305.985 250.418C305.488 248.753 304.387 248.167 302.68 248.658L292.452 251.605C290.765 252.091 290.161 253.167 290.643 254.838L292.13 260.002C292.611 261.672 293.696 262.266 295.383 261.78L305.611 258.834C307.315 258.343 307.929 257.242 307.458 255.532L305.985 250.418Z" fill="black"/>
<path d="M315.767 239.293L314.28 234.129C313.799 232.458 314.409 231.38 316.116 230.888C317.819 230.397 318.916 230.995 319.402 232.682L320.883 237.823L324.077 236.903C325.781 236.412 326.88 237.02 327.371 238.723C327.862 240.427 327.254 241.526 325.55 242.017L322.356 242.937L324.565 250.608C325.056 252.312 326.155 252.92 327.859 252.429C329.563 251.938 330.662 252.546 331.153 254.25C331.644 255.953 331.036 257.053 329.332 257.543C324.218 259.016 320.924 257.196 319.451 252.082L317.241 244.41L314.684 245.147C312.981 245.637 311.881 245.03 311.391 243.326C310.9 241.622 311.508 240.523 313.211 240.032L315.768 239.296L315.767 239.293Z" fill="black"/>
<path d="M335.363 233.594L354.546 228.097C356.25 227.607 357.346 228.204 357.832 229.891C358.323 231.595 357.715 232.694 356.011 233.185L336.86 238.702C336.016 238.981 335.713 239.528 335.949 240.348C336.195 241.202 336.743 241.505 337.596 241.259L352.939 236.839C357.204 235.629 359.962 237.161 361.214 241.433C362.425 245.698 360.897 248.447 356.636 249.675L337.461 255.198C335.757 255.689 334.658 255.081 334.167 253.377C333.677 251.674 334.284 250.574 335.988 250.084L355.163 244.561C356.016 244.315 356.319 243.767 356.073 242.914C355.818 242.027 355.266 241.708 354.412 241.954L339.069 246.373C334.809 247.6 332.062 246.082 330.835 241.822C329.608 237.561 331.119 234.817 335.363 233.594Z" fill="black"/>
<defs>
<filter id="filter0_d_16_57" x="15.041" y="23.7617" width="380.54" height="330.095" filterUnits="userSpaceOnUse" color-interpolation-filters="sRGB">
<feFlood flood-opacity="0" result="BackgroundImageFix"/>
<feColorMatrix in="SourceAlpha" type="matrix" values="0 0 0 0 0 0 0 0 0 0 0 0 0 0 0 0 0 0 127 0" result="hardAlpha"/>
<feOffset dy="4"/>
<feGaussianBlur stdDeviation="2"/>
<feComposite in2="hardAlpha" operator="out"/>
<feColorMatrix type="matrix" values="0 0 0 0 0 0 0 0 0 0 0 0 0 0 0 0 0 0 0.25 0"/>
<feBlend mode="normal" in2="BackgroundImageFix" result="effect1_dropShadow_16_57"/>
<feBlend mode="normal" in="SourceGraphic" in2="effect1_dropShadow_16_57" result="shape"/>
</filter>
</defs>
</svg>
