<svg width="358" height="100" viewBox="0 0 358 100" fill="none" xmlns="http://www.w3.org/2000/svg">
<path fill-rule="evenodd" clip-rule="evenodd" d="M0 50.2792C0 75.1375 18.0542 95.8083 41.6667 100V63.8875H29.1667V50H41.6667V38.8875C41.6667 26.3875 49.7208 19.4458 61.1125 19.4458C64.7208 19.4458 68.6125 20 72.2208 20.5542V33.3333H65.8333C59.7208 33.3333 58.3333 36.3875 58.3333 40.2792V50H71.6667L69.4458 63.8875H58.3333V100C81.9458 95.8083 100 75.1417 100 50.2792C100 22.625 77.5 0 50 0C22.5 0 0 22.625 0 50.2792Z" fill="#4169E1"/>
<path d="M187.349 49.1302L175.651 43.6719C174.63 43.1979 173.792 43.7292 173.792 44.8594V55.1406C173.792 56.2708 174.63 56.8021 175.651 56.3281L187.344 50.8698C188.37 50.3906 188.37 49.6094 187.349 49.1302ZM179 0C151.385 0 129 22.3854 129 50C129 77.6146 151.385 100 179 100C206.615 100 229 77.6146 229 50C229 22.3854 206.615 0 179 0ZM179 70.3125C153.406 70.3125 152.958 68.0052 152.958 50C152.958 31.9948 153.406 29.6875 179 29.6875C204.594 29.6875 205.042 31.9948 205.042 50C205.042 68.0052 204.594 70.3125 179 70.3125Z" fill="#C4302B"/>
<path fill-rule="evenodd" clip-rule="evenodd" d="M308 100C335.614 100 358 77.6142 358 50C358 22.3858 335.614 0 308 0C280.386 0 258 22.3858 258 50C258 77.6142 280.386 100 308 100ZM307.72 20.1923C299.699 20.1923 298.695 20.2245 295.546 20.3695H295.544C292.403 20.5144 290.256 21.0137 288.377 21.7411C286.408 22.4832 284.624 23.6457 283.15 25.1475C281.647 26.622 280.484 28.4065 279.741 30.3765C279.014 32.2555 278.512 34.403 278.37 37.549C278.227 40.695 278.192 41.6989 278.192 49.7196C278.192 57.7375 278.225 58.7415 278.37 61.8955C278.514 65.0361 279.014 67.1836 279.741 69.0626C280.483 71.0325 281.645 72.817 283.148 74.2916C284.623 75.7928 286.409 76.9543 288.379 77.6953C290.258 78.4254 292.406 78.9274 295.546 79.0696C298.695 79.2119 299.699 79.2468 307.72 79.2468C315.74 79.2468 316.744 79.2146 319.896 79.0696C323.036 78.9247 325.184 78.4254 327.063 77.6953C329.03 76.9544 330.815 75.7948 332.292 74.2916C333.793 72.8158 334.954 71.0304 335.695 69.0599C336.425 67.1809 336.927 65.0334 337.07 61.8928C337.212 58.7441 337.247 57.7402 337.247 49.7196C337.247 41.7016 337.215 40.6976 337.07 37.5436C336.925 34.403 336.425 32.2555 335.695 30.3765C334.954 28.4062 333.795 26.6239 332.292 25.1502C330.815 23.647 329.03 22.4847 327.063 21.7411C325.184 21.0137 323.036 20.5117 319.89 20.3695C316.744 20.2272 315.74 20.1923 307.72 20.1923ZM307.72 25.5126C315.603 25.5126 316.538 25.5421 319.651 25.6844C322.532 25.8159 324.094 26.2964 325.135 26.7017C326.418 27.1747 327.578 27.9286 328.531 28.9082C329.564 29.9417 330.201 30.9268 330.737 32.3038C331.143 33.3454 331.623 34.9076 331.755 37.7879C331.897 40.9016 331.927 41.8358 331.927 49.7196C331.927 57.6033 331.897 58.5375 331.755 61.6512C331.623 64.5315 331.143 66.0938 330.737 67.1353C330.265 68.4157 329.511 69.578 328.531 70.5309C327.498 71.5643 326.512 72.2005 325.135 72.7374C324.094 73.1427 322.532 73.6232 319.651 73.7547C316.538 73.897 315.606 73.9265 307.72 73.9265C299.833 73.9265 298.902 73.897 295.788 73.7547C292.908 73.6232 291.345 73.1427 290.304 72.7374C289.024 72.2649 287.861 71.5107 286.908 70.5309C285.929 69.578 285.174 68.4157 284.702 67.1353C284.296 66.0938 283.816 64.5315 283.684 61.6512C283.542 58.5375 283.513 57.6033 283.513 49.7196C283.513 41.8358 283.542 40.9016 283.684 37.7879C283.816 34.9076 284.296 33.3454 284.702 32.3038C285.175 31.0215 285.929 29.8613 286.908 28.9082C287.942 27.8748 288.927 27.2386 290.304 26.7017C291.345 26.2964 292.908 25.8159 295.788 25.6844C298.902 25.5421 299.836 25.5126 307.72 25.5126ZM310.584 59.1568C308.4 59.8171 306.054 59.6988 303.948 58.822C302.603 58.2642 301.398 57.415 300.42 56.3356C299.443 55.2562 298.716 53.9735 298.294 52.5797C297.871 51.186 297.763 49.7159 297.977 48.2753C298.191 46.8347 298.721 45.4595 299.531 44.2486C300.34 43.0377 301.407 42.0212 302.657 41.2724C303.906 40.5236 305.305 40.0611 306.755 39.9182C308.204 39.7752 309.667 39.9554 311.038 40.4457C312.41 40.936 313.655 41.7243 314.685 42.7538C316.301 44.3643 317.308 46.4859 317.534 48.7562C317.759 51.0265 317.189 53.3046 315.922 55.2015C314.654 57.0985 312.767 58.4965 310.584 59.1568ZM301.912 35.6978C300.07 36.4605 298.397 37.5784 296.988 38.9877C294.142 41.834 292.543 45.6943 292.543 49.7196C292.543 53.7448 294.142 57.6051 296.988 60.4514C299.834 63.2976 303.694 64.8966 307.72 64.8966C311.745 64.8966 315.605 63.2976 318.451 60.4514C319.861 59.042 320.979 57.3689 321.741 55.5276C322.504 53.6862 322.897 51.7126 322.897 49.7196C322.897 47.7265 322.504 45.7529 321.741 43.9115C320.979 42.0702 319.861 40.3971 318.451 38.9877C317.042 37.5784 315.369 36.4605 313.528 35.6978C311.686 34.935 309.713 34.5425 307.72 34.5425C305.727 34.5425 303.753 34.935 301.912 35.6978ZM327.085 35.6377C326.892 36.0771 326.612 36.4733 326.263 36.8027C325.584 37.4434 324.681 37.7942 323.748 37.7806C322.814 37.767 321.923 37.3901 321.262 36.7298C320.602 36.0696 320.225 35.178 320.212 34.2444C320.198 33.3108 320.549 32.4086 321.189 31.7294C321.519 31.3802 321.915 31.1006 322.354 30.9072C322.794 30.7138 323.268 30.6106 323.748 30.6036C324.228 30.5966 324.704 30.686 325.149 30.8665C325.594 31.0469 325.998 31.3149 326.338 31.6544C326.677 31.9938 326.945 32.398 327.126 32.8429C327.306 33.2878 327.396 33.7643 327.389 34.2444C327.382 34.7245 327.278 35.1982 327.085 35.6377Z" fill="#C13584"/>
</svg>
